<svg width="34" height="34" viewBox="0 0 34 34" fill="none" xmlns="http://www.w3.org/2000/svg">
<g filter="url(#filter0_d_1_35)">
<circle cx="17" cy="13" r="13" fill="#2F3136"/>
</g>
<path d="M17 7.34784C13.8776 7.34784 11.3478 9.87764 11.3478 13C11.3478 16.1224 13.8776 18.6522 17 18.6522C20.1224 18.6522 22.6522 16.1224 22.6522 13C22.6522 9.87764 20.1224 7.34784 17 7.34784ZM19.108 14.4814L18.6521 15.0512C18.6222 15.0886 18.5852 15.1197 18.5433 15.1428C18.5013 15.166 18.4552 15.1806 18.4077 15.1859C18.3601 15.1911 18.3119 15.187 18.2659 15.1737C18.2199 15.1604 18.177 15.1381 18.1396 15.1082L16.6126 13.975C16.5059 13.8896 16.4198 13.7813 16.3606 13.6581C16.3014 13.5349 16.2707 13.3999 16.2707 13.2632V9.71811C16.2707 9.62139 16.3091 9.52864 16.3775 9.46025C16.4459 9.39187 16.5386 9.35345 16.6354 9.35345H17.3647C17.4614 9.35345 17.5541 9.39187 17.6225 9.46025C17.6909 9.52864 17.7293 9.62139 17.7293 9.71811V13L19.0512 13.9686C19.0886 13.9986 19.1198 14.0356 19.1429 14.0776C19.166 14.1195 19.1806 14.1656 19.1858 14.2133C19.1911 14.2609 19.187 14.3091 19.1736 14.3551C19.1602 14.4011 19.1379 14.444 19.108 14.4814Z" fill="#FEFEFF"/>
<defs>
<filter id="filter0_d_1_35" x="0" y="0" width="34" height="34" filterUnits="userSpaceOnUse" color-interpolation-filters="sRGB">
<feFlood flood-opacity="0" result="BackgroundImageFix"/>
<feColorMatrix in="SourceAlpha" type="matrix" values="0 0 0 0 0 0 0 0 0 0 0 0 0 0 0 0 0 0 127 0" result="hardAlpha"/>
<feOffset dy="4"/>
<feGaussianBlur stdDeviation="2"/>
<feComposite in2="hardAlpha" operator="out"/>
<feColorMatrix type="matrix" values="0 0 0 0 0 0 0 0 0 0 0 0 0 0 0 0 0 0 0.1 0"/>
<feBlend mode="normal" in2="BackgroundImageFix" result="effect1_dropShadow_1_35"/>
<feBlend mode="normal" in="SourceGraphic" in2="effect1_dropShadow_1_35" result="shape"/>
</filter>
</defs>
</svg>
