<svg width="14" height="14" viewBox="0 0 14 14" fill="none" xmlns="http://www.w3.org/2000/svg">
<path d="M7 10.5C5.0668 10.5 3.5 8.9332 3.5 7C3.5 5.0668 5.0668 3.5 7 3.5C8.9332 3.5 10.5 5.0668 10.5 7C10.5 8.9332 8.9332 10.5 7 10.5ZM7 0C7.38555 0 7.7 0.314453 7.7 0.7V2.1C7.7 2.48555 7.38555 2.8 7 2.8C6.61445 2.8 6.3 2.48555 6.3 2.1V0.7C6.3 0.314453 6.61445 0 7 0ZM7 11.2C7.38555 11.2 7.7 11.5145 7.7 11.9V13.3C7.7 13.6855 7.38555 14 7 14C6.61445 14 6.3 13.6855 6.3 13.3V11.9C6.3 11.5145 6.61445 11.2 7 11.2ZM0.7 6.3H2.1C2.48555 6.3 2.8 6.61445 2.8 7C2.8 7.38555 2.48555 7.7 2.1 7.7H0.7C0.314453 7.7 0 7.38555 0 7C0 6.61445 0.314453 6.3 0.7 6.3ZM11.9 6.3H13.3C13.6855 6.3 14 6.61445 14 7C14 7.38555 13.6855 7.7 13.3 7.7H11.9C11.5145 7.7 11.2 7.38555 11.2 7C11.2 6.61445 11.5145 6.3 11.9 6.3ZM11.9492 2.05078C12.2227 2.32422 12.2227 2.76719 11.9492 3.04062L10.9594 4.03047C10.6914 4.30937 10.2484 4.31484 9.96953 4.04688C9.69063 3.77891 9.68242 3.33594 9.95312 3.05703L9.96953 3.04062L10.9594 2.05078C11.2328 1.77734 11.6758 1.77734 11.9492 2.05078ZM4.03047 9.96953C4.30391 10.243 4.30391 10.6859 4.03047 10.9594L3.04062 11.9492C2.77266 12.2281 2.32969 12.2363 2.05078 11.9656C1.77188 11.6977 1.76367 11.2547 2.03437 10.9758L2.05078 10.9594L3.04062 9.96953C3.31406 9.69609 3.75703 9.69609 4.03047 9.96953ZM3.04062 2.05078L4.03047 3.04062C4.29844 3.31953 4.29297 3.7625 4.01406 4.03047C3.74336 4.29297 3.31133 4.29297 3.04062 4.03047L2.05078 3.04062C1.78281 2.76172 1.79102 2.31875 2.06719 2.05078C2.34063 1.78828 2.76992 1.78828 3.04062 2.05078ZM10.9594 9.96953L11.9492 10.9594C12.2172 11.2383 12.209 11.6812 11.9328 11.9492C11.6621 12.2117 11.2301 12.2117 10.9594 11.9492L9.96953 10.9594C9.69063 10.6914 9.68242 10.2484 9.95312 9.96953C10.2211 9.69063 10.6641 9.68242 10.943 9.95312L10.9594 9.96953Z" fill="url(#paint0_linear_11_1238)"/>
<defs>
<linearGradient id="paint0_linear_11_1238" x1="0.295181" y1="0.204007" x2="12.9531" y2="16.4334" gradientUnits="userSpaceOnUse">
<stop stop-color="#A34AFC"/>
<stop offset="1" stop-color="#FC5F4A"/>
</linearGradient>
</defs>
</svg>
