<svg width="124" height="26" viewBox="0 0 124 26" fill="none" xmlns="http://www.w3.org/2000/svg">
<path d="M33.98 20V15.02L29.28 6H32.18L35.28 12.46L38.36 6H41.22L36.54 15.02V20H33.98ZM45.9827 20.24C45.0227 20.24 44.156 20.02 43.3827 19.58C42.6227 19.14 42.016 18.5333 41.5627 17.76C41.1227 16.9733 40.9027 16.0667 40.9027 15.04C40.9027 14.0133 41.1293 13.1133 41.5827 12.34C42.036 11.5533 42.6427 10.94 43.4027 10.5C44.176 10.06 45.0427 9.84 46.0027 9.84C46.9493 9.84 47.8027 10.06 48.5627 10.5C49.336 10.94 49.9427 11.5533 50.3827 12.34C50.836 13.1133 51.0627 14.0133 51.0627 15.04C51.0627 16.0667 50.836 16.9733 50.3827 17.76C49.9427 18.5333 49.336 19.14 48.5627 19.58C47.7893 20.02 46.9293 20.24 45.9827 20.24ZM45.9827 18.02C46.6493 18.02 47.2293 17.7733 47.7227 17.28C48.216 16.7733 48.4627 16.0267 48.4627 15.04C48.4627 14.0533 48.216 13.3133 47.7227 12.82C47.2293 12.3133 46.656 12.06 46.0027 12.06C45.3227 12.06 44.736 12.3133 44.2427 12.82C43.7627 13.3133 43.5227 14.0533 43.5227 15.04C43.5227 16.0267 43.7627 16.7733 44.2427 17.28C44.736 17.7733 45.316 18.02 45.9827 18.02ZM57.2716 20.24C56.0316 20.24 55.0716 19.8533 54.3916 19.08C53.7249 18.3067 53.3916 17.1733 53.3916 15.68V10.08H55.9316V15.44C55.9316 16.2933 56.1049 16.9467 56.4516 17.4C56.7982 17.8533 57.3449 18.08 58.0916 18.08C58.7982 18.08 59.3782 17.8267 59.8316 17.32C60.2982 16.8133 60.5316 16.1067 60.5316 15.2V10.08H63.0916V20H60.8316L60.6316 18.32C60.3249 18.9067 59.8782 19.3733 59.2916 19.72C58.7182 20.0667 58.0449 20.24 57.2716 20.24ZM65.9195 20V10.08H68.1995L68.4395 11.94C68.7995 11.3 69.2862 10.7933 69.8995 10.42C70.5262 10.0333 71.2595 9.84 72.0995 9.84V12.54H71.3795C70.8195 12.54 70.3195 12.6267 69.8795 12.8C69.4395 12.9733 69.0929 13.2733 68.8395 13.7C68.5995 14.1267 68.4795 14.72 68.4795 15.48V20H65.9195ZM79.0748 20V6H81.6348V18H87.8348V20H79.0748ZM94.5413 20.24C93.5813 20.24 92.7146 20.02 91.9413 19.58C91.1813 19.14 90.5746 18.5333 90.1213 17.76C89.6813 16.9733 89.4613 16.0667 89.4613 15.04C89.4613 14.0133 89.6879 13.1133 90.1413 12.34C90.5946 11.5533 91.2013 10.94 91.9613 10.5C92.7346 10.06 93.6013 9.84 94.5613 9.84C95.5079 9.84 96.3613 10.06 97.1213 10.5C97.8946 10.94 98.5013 11.5533 98.9413 12.34C99.3946 13.1133 99.6213 14.0133 99.6213 15.04C99.6213 16.0667 99.3946 16.9733 98.9413 17.76C98.5013 18.5333 97.8946 19.14 97.1213 19.58C96.3479 20.02 95.4879 20.24 94.5413 20.24ZM94.5413 18.02C95.2079 18.02 95.7879 17.7733 96.2813 17.28C96.7746 16.7733 97.0213 16.0267 97.0213 15.04C97.0213 14.0533 96.7746 13.3133 96.2813 12.82C95.7879 12.3133 95.2146 12.06 94.5613 12.06C93.8813 12.06 93.2946 12.3133 92.8013 12.82C92.3213 13.3133 92.0813 14.0533 92.0813 15.04C92.0813 16.0267 92.3213 16.7733 92.8013 17.28C93.2946 17.7733 93.8746 18.02 94.5413 18.02ZM105.685 17.04C105.205 17.04 104.758 16.9867 104.345 16.88L103.605 17.62C103.832 17.74 104.138 17.84 104.525 17.92C104.912 18 105.538 18.08 106.405 18.16C107.725 18.28 108.685 18.5933 109.285 19.1C109.885 19.6067 110.185 20.3067 110.185 21.2C110.185 21.7867 110.025 22.34 109.705 22.86C109.385 23.3933 108.892 23.82 108.225 24.14C107.558 24.4733 106.705 24.64 105.665 24.64C104.252 24.64 103.112 24.3733 102.245 23.84C101.378 23.32 100.945 22.5333 100.945 21.48C100.945 20.5867 101.378 19.8133 102.245 19.16C101.978 19.04 101.745 18.9133 101.545 18.78C101.358 18.6467 101.192 18.5067 101.045 18.36V17.9L102.785 16.06C102.012 15.38 101.625 14.5067 101.625 13.44C101.625 12.7733 101.785 12.1667 102.105 11.62C102.438 11.0733 102.905 10.64 103.505 10.32C104.105 10 104.832 9.84 105.685 9.84C106.245 9.84 106.765 9.92 107.245 10.08H111.005V11.64L109.305 11.76C109.572 12.2667 109.705 12.8267 109.705 13.44C109.705 14.1067 109.545 14.7133 109.225 15.26C108.905 15.8067 108.438 16.24 107.825 16.56C107.225 16.88 106.512 17.04 105.685 17.04ZM105.685 15.08C106.205 15.08 106.632 14.94 106.965 14.66C107.312 14.38 107.485 13.98 107.485 13.46C107.485 12.94 107.312 12.54 106.965 12.26C106.632 11.98 106.205 11.84 105.685 11.84C105.138 11.84 104.698 11.98 104.365 12.26C104.032 12.54 103.865 12.94 103.865 13.46C103.865 13.98 104.032 14.38 104.365 14.66C104.698 14.94 105.138 15.08 105.685 15.08ZM103.285 21.22C103.285 21.7133 103.512 22.08 103.965 22.32C104.432 22.5733 104.998 22.7 105.665 22.7C106.305 22.7 106.825 22.5667 107.225 22.3C107.625 22.0467 107.825 21.7 107.825 21.26C107.825 20.9 107.692 20.6 107.425 20.36C107.172 20.12 106.658 19.9733 105.885 19.92C105.338 19.88 104.832 19.82 104.365 19.74C103.978 19.9533 103.698 20.1867 103.525 20.44C103.365 20.6933 103.285 20.9533 103.285 21.22ZM117.441 20.24C116.481 20.24 115.615 20.02 114.841 19.58C114.081 19.14 113.475 18.5333 113.021 17.76C112.581 16.9733 112.361 16.0667 112.361 15.04C112.361 14.0133 112.588 13.1133 113.041 12.34C113.495 11.5533 114.101 10.94 114.861 10.5C115.635 10.06 116.501 9.84 117.461 9.84C118.408 9.84 119.261 10.06 120.021 10.5C120.795 10.94 121.401 11.5533 121.841 12.34C122.295 13.1133 122.521 14.0133 122.521 15.04C122.521 16.0667 122.295 16.9733 121.841 17.76C121.401 18.5333 120.795 19.14 120.021 19.58C119.248 20.02 118.388 20.24 117.441 20.24ZM117.441 18.02C118.108 18.02 118.688 17.7733 119.181 17.28C119.675 16.7733 119.921 16.0267 119.921 15.04C119.921 14.0533 119.675 13.3133 119.181 12.82C118.688 12.3133 118.115 12.06 117.461 12.06C116.781 12.06 116.195 12.3133 115.701 12.82C115.221 13.3133 114.981 14.0533 114.981 15.04C114.981 16.0267 115.221 16.7733 115.701 17.28C116.195 17.7733 116.775 18.02 117.441 18.02Z" fill="#FEFEFF"/>
<circle cx="8" cy="12" r="8" fill="url(#paint0_linear_1_238)"/>
<defs>
<linearGradient id="paint0_linear_1_238" x1="8" y1="4" x2="8" y2="20" gradientUnits="userSpaceOnUse">
<stop stop-color="#6F47EB"/>
<stop offset="1" stop-color="#F68BFF"/>
</linearGradient>
</defs>
</svg>
