<svg width="12" height="12" viewBox="0 0 12 12" fill="none" xmlns="http://www.w3.org/2000/svg">
<path d="M6.16769 11.9999H6.10757C5.28312 11.9937 4.46821 11.8229 3.71056 11.4977C2.9529 11.1724 2.26774 10.6993 1.69519 10.1059C0.633474 8.97018 0.0299486 7.48138 0.0010851 5.92678C-0.0277784 4.37219 0.520066 2.862 1.53889 1.68767C2.19527 0.95189 3.02042 0.386511 3.94346 0.040114C4.05116 -0.00134051 4.16852 -0.0109104 4.28151 0.012547C4.3945 0.0360044 4.49836 0.0914977 4.58067 0.1724C4.65691 0.250161 4.7106 0.347173 4.73601 0.453077C4.76142 0.55898 4.75759 0.669799 4.72495 0.773699C4.39549 1.67621 4.33022 2.65399 4.53679 3.5923C4.74335 4.53061 5.21319 5.39053 5.89116 6.07114C6.57546 6.74721 7.43719 7.21558 8.3766 7.42202C9.31601 7.62847 10.2947 7.56455 11.1993 7.23766C11.3069 7.19975 11.4232 7.19329 11.5344 7.21902C11.6456 7.24476 11.7472 7.30164 11.8272 7.383C11.9073 7.46436 11.9626 7.56685 11.9866 7.67847C12.0106 7.7901 12.0023 7.90625 11.9627 8.01334C11.6556 8.83334 11.1759 9.57773 10.556 10.1961C9.97944 10.7711 9.29492 11.2265 8.54183 11.536C7.78873 11.8456 6.98189 12.0033 6.16769 11.9999Z" fill="#8F9092"/>
</svg>
