<svg width="16" height="16" viewBox="0 0 16 16" fill="none" xmlns="http://www.w3.org/2000/svg">
<path d="M14.0667 5.91667L8.46668 11.5333C8.40002 11.6 8.32779 11.6471 8.25002 11.6747C8.17224 11.7027 8.08891 11.7167 8.00002 11.7167C7.91113 11.7167 7.82779 11.7027 7.75002 11.6747C7.67224 11.6471 7.60002 11.6 7.53335 11.5333L1.91668 5.91667C1.76113 5.76112 1.68335 5.56667 1.68335 5.33334C1.68335 5.10001 1.76668 4.90001 1.93335 4.73334C2.10002 4.56667 2.29446 4.48334 2.51668 4.48334C2.7389 4.48334 2.93335 4.56667 3.10002 4.73334L8.00002 9.63334L12.9 4.73334C13.0556 4.57779 13.2471 4.50001 13.4747 4.50001C13.7027 4.50001 13.9 4.58334 14.0667 4.75001C14.2334 4.91667 14.3167 5.11112 14.3167 5.33334C14.3167 5.55556 14.2334 5.75001 14.0667 5.91667Z" fill="#BCBDBE"/>
</svg>
